<svg xmlns="http://www.w3.org/2000/svg" viewBox="0 0 439 20.4"><style>.st0{fill:#56200C;} .st1{fill:#007500;}</style><g id="Layer_3"><path class="st1" d="M298.5.3c-.2 1.1-.5 1.9-.2 2-.5 1.3-.8 1.7-.3 2 .4-.2 1.6-.3 4 0-1.9.1-3.1 1.5-4 1.7-.9.5-1.4.9-1.7 1.2-.3.2-.4.8-.5 1.1-.4 0-.8.6-1.2.8-.4.5-.8 1-1.5.9-1.6.4-2.6 2.4-4.6 2.4 1 1 3-1 4 1-3 0-4 2-3 4-.3.5-.5.9-.7 1.4s-.4.9-.6 1.4c.2-.7.3-1.3.4-1.8-.1-6-1.1 0-1.2.1-.2.2-.5.4-.8.7l-1 1c.8-.7 1.1-1.4.8-1.1-.2.2-.9.5-1.9 1.3 1-.5.7-.7-.2 0 1-.7 1.1-.5.5 0 1.1-.8 1.5-.8 1.5 0 .5-.3.9-.7 1.3-.5.4.1.8.1 1.3.6.3-.4.6-.8 1.1-.6.5.2 1.2.3 2.2.5-.1-.4.2-.6.7-.5.6-.1 1.4.1 2.7.3-.1-.2.2-.3.7-.3.5 0 1.3.1 2.2 0 .4 0 .9 0 1.6-.1h2.1c1.3.1 2.7 0 4.2 0h132.7V.3H337.7c-1 .2-1.9-.3-2.9 0-1-.1-1.9-.5-2.8 0-.9.1-1.9.2-2.8.2-.9 0-1.8.4-2.8-.2-.9.4-1.8-.2-2.7-.2-.9 0-1.8-.1-2.6.2-.9-.2-1.7-.3-2.6-.1-.9-.1-1.7.9-2.5.1-.8 0-1.6-.5-2.5.1-.8.1-1.6 0-2.4-.1-.8-.3-1.5-.3-2.3-.2-.8 0-1.5-.2-2.2.2-.7-.4-1.4.2-2.1.2s-1.4-.2-2-.2c-1.6-.8-2.8.4-4 0zM138.5.3c-.9.1-1.8-.1-2.8 0-1 .1-2.2.3-3.4 0-1.2.1-2.5-.2-3.9 0s-2.8-.2-4.3 0c-1.5-.2-3.1-.5-4.7 0-1.6.3-3.3.2-5.1 0H0v19.3h110.2c1.7 0 3.4.1 5.1 0 1.6.1 3.2-.1 4.8 0 1.5-.1 3-.3 4.4 0 1.4.1 2.8.1 4 0h1.4c.4 0 .9-.1 1.3.1.4-.1.8 0 1.2-.1.4-.1.8 0 1.2 0 1.8 0 3.3-.2 4.6 0 1.3.1 2.2 0 2.9 0 .7.1 1 .1 1 0 0-.2-.2-.1-.5-.4-.3-.1-.7-.8-1.2-1.2-.5-.4-1.3-1.4-1.6-1.4-1.4-1.3-2.4-1.3-3.4-1.3-1-2 2-1 1.5-3.5-.1-.7 0-1.1.1-1.4.1-.3.4-.6.7-1.1-.9.7-1.4 1.1-1.8.4-.3 0-.5-.8-.8-1.3 0 0-.1-1.1-.4-1.3-.1-.6-.2-.8-.4-1.3.3 1.3.6 1.5.7 2 .2.3.2.8.3.2v-.6c0-1.2-.1-1.2-.2-1.9.2.9.3.3.5 0 .2-.5.3-1.5.6-1.5.2-.5.5-.8.9-1.8.4-.5.9-1.3 1.4-1.9z"/></g></svg>